<?xml version="1.0" encoding="UTF-8" standalone="no"?>
<svg width="61px" height="61px" viewBox="0 0 61 61" version="1.1" xmlns="http://www.w3.org/2000/svg" xmlns:xlink="http://www.w3.org/1999/xlink" xmlns:sketch="http://www.bohemiancoding.com/sketch/ns">
    <!-- Generator: Sketch 3.1.1 (8761) - http://www.bohemiancoding.com/sketch -->
    <title>ico_linkedin</title>
    <desc>Created with Sketch.</desc>
    <defs></defs>
    <g id="Page-1" stroke="none" stroke-width="1" fill="none" fill-rule="evenodd" sketch:type="MSPage">
        <g id="Desktop-HD" sketch:type="MSArtboardGroup" transform="translate(-502.000000, -849.000000)">
            <g id="Oval-1-+-linkedin-icon" sketch:type="MSLayerGroup" transform="translate(505.000000, 852.000000)">
                <circle id="Oval-1" stroke="#FFFFFF" stroke-width="3" sketch:type="MSShapeGroup" cx="27.5" cy="27.5" r="27.5"></circle>
                <path d="M20.7204244,16.5048398 C20.7204244,18.3062056 19.2719698,19.7664367 17.4852122,19.7664367 C15.6984546,19.7664367 14.25,18.3062056 14.25,16.5048398 C14.25,14.7035384 15.6984546,13.2433073 17.4852122,13.2433073 C19.2720342,13.2433073 20.7204244,14.7035384 20.7204244,16.5048398 L20.7204244,16.5048398 Z M20.2470446,22.081081 L14.7759561,22.081081 L14.7759561,39.7566927 L20.2470446,39.7566927 L20.2470446,22.081081 L20.2470446,22.081081 Z M28.992665,22.081081 L23.745267,22.081081 L23.745267,39.7566927 L28.992665,39.7566927 L28.992665,30.4782305 C28.992665,27.992665 30.1367948,26.513128 32.3265945,26.513128 C34.3387803,26.513128 35.3054248,27.9334603 35.3054248,30.4782305 L35.3054248,39.7566927 L40.75,39.7566927 L40.75,28.5647621 C40.75,23.8302565 38.0671929,21.5418682 34.3189596,21.5418682 C30.5707262,21.5418682 28.9926006,24.4614939 28.9926006,24.4614939 L28.9926006,22.081081 L28.992665,22.081081 Z" id="linkedin-icon" fill="#FFFFFF" sketch:type="MSShapeGroup"></path>
            </g>
        </g>
    </g>
</svg>