<?xml version="1.0" encoding="UTF-8" standalone="no"?>
<svg width="61px" height="61px" viewBox="0 0 61 61" version="1.1" xmlns="http://www.w3.org/2000/svg" xmlns:xlink="http://www.w3.org/1999/xlink" xmlns:sketch="http://www.bohemiancoding.com/sketch/ns">
    <!-- Generator: Sketch 3.1.1 (8761) - http://www.bohemiancoding.com/sketch -->
    <title>ico_dribbble</title>
    <desc>Created with Sketch.</desc>
    <defs></defs>
    <g id="Page-1" stroke="none" stroke-width="1" fill="none" fill-rule="evenodd" sketch:type="MSPage">
        <g id="Desktop-HD" sketch:type="MSArtboardGroup" transform="translate(-572.000000, -849.000000)">
            <g id="Oval-2-+-dribbble-icon" sketch:type="MSLayerGroup" transform="translate(575.000000, 852.000000)">
                <circle id="Oval-2" stroke="#FFFFFF" stroke-width="3" sketch:type="MSShapeGroup" cx="27.5" cy="27.5" r="27.5"></circle>
                <path d="M27.5,10 C17.8349879,10 10,17.8349879 10,27.5 C10,37.1646723 17.8349879,45 27.5,45 C37.1650121,45 45,37.1646723 45,27.5 C45,17.8349879 37.1650121,10 27.5,10 L27.5,10 Z M41.9152427,26.6848058 C38.1603883,26.0688228 34.7067718,26.0358617 31.5576214,26.5782767 C31.2018447,25.7565413 30.8328155,24.9383738 30.4394053,24.1281068 C33.8068811,22.670085 36.5136893,20.688932 38.5300121,18.175983 C40.4979976,20.5005097 41.7336165,23.4524029 41.9152427,26.6848058 L41.9152427,26.6848058 Z M36.3120146,16.0657039 C34.5558131,18.3309345 32.130534,20.1234951 29.0414442,21.4316626 C27.559466,18.7177184 25.8656189,16.0713107 23.9537864,13.5019539 C25.0905218,13.2132888 26.2745752,13.0434709 27.499915,13.0434709 C30.8181189,13.0434709 33.8695752,14.1788471 36.3120146,16.0657039 L36.3120146,16.0657039 Z M20.9772573,14.6160922 C22.9191626,17.1569903 24.6393447,19.7751092 26.135,22.4633981 C22.5915049,23.5066019 18.3605825,24.0427306 13.4703519,24.0762015 C14.480085,19.9411044 17.2650485,16.503034 20.9772573,14.6160922 L20.9772573,14.6160922 Z M13.0434709,27.5 C13.0434709,27.3741019 13.0591019,27.2518568 13.062415,27.1269782 C18.6745631,27.1191626 23.5162015,26.4731917 27.5728034,25.19875 C27.9128641,25.8905947 28.2383131,26.586432 28.5491505,27.2866869 C23.6209466,28.8271117 19.5591626,31.9849272 16.3916626,36.7372816 C14.303301,34.230534 13.0434709,31.0100243 13.0434709,27.5 L13.0434709,27.5 Z M18.6278398,38.8891869 C21.499284,34.3859102 25.1650243,31.4548301 29.7080583,30.0998544 C31.0603155,33.6288228 32.0545024,37.259733 32.6866262,40.9787379 C31.0739078,41.6013471 29.3294296,41.9565291 27.500085,41.9565291 C24.1547816,41.9565291 21.0797937,40.8040777 18.6278398,38.8891869 L18.6278398,38.8891869 Z M35.5240049,39.5163835 C34.885085,36.0857039 33.94875,32.7306311 32.7243447,29.458216 C35.459017,29.0722816 38.4705461,29.1726092 41.7641141,29.7446723 C41.1264684,33.8073908 38.8064442,37.3169903 35.5240049,39.5163835 L35.5240049,39.5163835 Z" id="dribbble-icon" fill="#FFFFFF" sketch:type="MSShapeGroup"></path>
            </g>
        </g>
    </g>
</svg>