<?xml version="1.0" encoding="UTF-8" standalone="no"?>
<svg width="61px" height="61px" viewBox="0 0 61 61" version="1.1" xmlns="http://www.w3.org/2000/svg" xmlns:xlink="http://www.w3.org/1999/xlink" xmlns:sketch="http://www.bohemiancoding.com/sketch/ns">
    <!-- Generator: Sketch 3.1.1 (8761) - http://www.bohemiancoding.com/sketch -->
    <title>ico_github</title>
    <desc>Created with Sketch.</desc>
    <defs></defs>
    <g id="Page-1" stroke="none" stroke-width="1" fill="none" fill-rule="evenodd" sketch:type="MSPage">
        <g id="Desktop-HD" sketch:type="MSArtboardGroup" transform="translate(-642.000000, -849.000000)">
            <g id="Oval-3-+-github-icon" sketch:type="MSLayerGroup" transform="translate(645.000000, 852.000000)">
                <circle id="Oval-3" stroke="#FFFFFF" stroke-width="3" sketch:type="MSShapeGroup" cx="27.5" cy="27.5" r="27.5"></circle>
                <path d="M27.5,9.94417052 C17.5594563,9.94417052 9.5,18.0037142 9.5,27.9441705 C9.5,35.8967627 14.6575243,42.6452773 21.8105146,45.0242482 C22.7099029,45.1912288 23,44.6346268 23,44.1585006 L23,40.8070055 C17.9931165,41.8968793 16.9500777,38.6844909 16.9500777,38.6844909 C16.1327379,36.6029569 14.952165,36.0492385 14.952165,36.0492385 C13.3187961,34.9330637 15.0751942,34.9549958 15.0751942,34.9549958 C16.8828835,35.0824812 17.8349612,36.8109181 17.8349612,36.8109181 C19.4403689,39.5618598 22.0448641,38.7665394 23.0732233,38.3065783 C23.2343495,37.1433938 23.7000777,36.3495589 24.2157864,35.899821 C20.2166408,35.4457142 16.0154757,33.9017336 16.0154757,27.0038016 C16.0154757,25.0379569 16.7186117,23.4324618 17.8700874,22.1727239 C17.6825728,21.7186171 17.0672524,19.8875977 18.0430097,17.4090152 C18.0430097,17.4090152 19.5547476,16.9256365 22.9940583,19.2547142 C24.431,18.8562676 25.970699,18.6556462 27.5,18.6483064 C29.029301,18.6556462 30.5717087,18.856355 32.0087379,19.2547142 C35.4453398,16.9256365 36.9540194,17.4090152 36.9540194,17.4090152 C37.9341456,19.8875103 37.3173398,21.7185297 37.1313107,22.1727239 C38.2856699,23.4324618 38.9843495,25.0379569 38.9843495,27.0038016 C38.9843495,33.9178113 34.7729612,35.4397725 30.765165,35.8851414 C31.4095825,36.4433161 32.0000874,37.540355 32.0000874,39.2190734 L32.0000874,44.1585006 C32.0000874,44.6375103 32.2885243,45.1985686 33.2011942,45.0228501 C40.3496408,42.6395977 45.5,35.8953647 45.5,27.9442579 C45.5,18.0038016 37.4403689,9.94417052 27.5,9.94417052 L27.5,9.94417052 Z" id="github-icon" fill="#FFFFFF" sketch:type="MSShapeGroup"></path>
            </g>
        </g>
    </g>
</svg>