<svg width="61" height="61" viewBox="0 0 61 61" xmlns="http://www.w3.org/2000/svg"><title>ico_github</title><desc>Created with Sketch.</desc><g transform="translate(-642 -849) translate(645 852)" fill="none"><circle stroke="#fff" stroke-width="3" cx="27.5" cy="27.5" r="27.5"/><path d="M27.5 9.944c-9.94 0-18 8.06-18 18 0 7.953 5.158 14.7 12.31 17.08.9.167 1.19-.39 1.19-.865v-3.353c-5.007 1.09-6.05-2.123-6.05-2.123-.817-2.08-1.998-2.635-1.998-2.635-1.633-1.117.123-1.095.123-1.095 1.808.127 2.76 1.856 2.76 1.856 1.605 2.752 4.21 1.957 5.238 1.497.16-1.164.627-1.957 1.143-2.407-4-.454-8.2-1.998-8.2-8.896 0-1.966.703-3.572 1.854-4.83-.187-.455-.803-2.286.173-4.765 0 0 1.512-.484 4.95 1.845 1.438-.4 2.978-.6 4.507-.607 1.53.008 3.072.208 4.51.607 3.435-2.33 4.944-1.846 4.944-1.846.98 2.478.363 4.31.177 4.763 1.156 1.26 1.854 2.865 1.854 4.83 0 6.915-4.21 8.437-8.22 8.882C31.41 36.443 32 37.54 32 39.22v4.94c0 .478.29 1.04 1.2.863 7.15-2.383 12.3-9.128 12.3-17.08 0-9.94-8.06-18-18-18z" fill="#fff"/></g></svg>