<svg width="61" height="61" viewBox="0 0 61 61" xmlns="http://www.w3.org/2000/svg"><title>ico_dribbble</title><desc>Created with Sketch.</desc><g transform="translate(-572 -849) translate(575 852)" fill="none"><circle stroke="#fff" stroke-width="3" cx="27.5" cy="27.5" r="27.5"/><path d="M27.5 10C17.835 10 10 17.835 10 27.5S17.835 45 27.5 45 45 37.165 45 27.5 37.165 10 27.5 10zm14.415 16.685c-3.755-.616-7.208-.65-10.357-.107-.356-.82-.725-1.64-1.12-2.45 3.37-1.458 6.076-3.44 8.092-5.952 1.968 2.325 3.204 5.276 3.385 8.51zm-5.603-10.62c-1.756 2.266-4.18 4.058-7.27 5.367-1.483-2.714-3.176-5.36-5.088-7.93 1.137-.29 2.32-.46 3.546-.46 3.318 0 6.37 1.137 8.812 3.024zm-15.335-1.45c1.942 2.542 3.662 5.16 5.158 7.848-3.543 1.044-7.774 1.58-12.665 1.613 1.01-4.135 3.795-7.573 7.507-9.46zM13.043 27.5c0-.126.016-.248.02-.373 5.612-.008 10.453-.654 14.51-1.928.34.69.665 1.386.976 2.087-4.93 1.54-8.99 4.698-12.158 9.45-2.09-2.506-3.35-5.727-3.35-9.237zm5.585 11.39c2.87-4.504 6.537-7.435 11.08-8.79 1.352 3.53 2.347 7.16 2.98 10.88-1.614.62-3.36.977-5.188.977-3.345 0-6.42-1.153-8.872-3.068zm16.896.626c-.64-3.43-1.575-6.785-2.8-10.058 2.735-.386 5.747-.285 9.04.287-.638 4.062-2.958 7.572-6.24 9.77z" fill="#fff"/></g></svg>