<svg width="61" height="61" viewBox="0 0 61 61" xmlns="http://www.w3.org/2000/svg"><title>ico_linkedin</title><desc>Created with Sketch.</desc><g transform="translate(-502 -849) translate(505 852)" fill="none"><circle stroke="#fff" stroke-width="3" cx="27.5" cy="27.5" r="27.5"/><path d="M20.72 16.505c0 1.8-1.448 3.26-3.235 3.26s-3.235-1.46-3.235-3.26c0-1.8 1.448-3.262 3.235-3.262s3.235 1.46 3.235 3.262zm-.473 5.576h-5.47v17.677h5.47V22.08zm8.746 0h-5.248v17.677h5.248v-9.28c0-2.484 1.144-3.964 3.334-3.964 2.012 0 2.978 1.42 2.978 3.965v9.28h5.445V28.564c0-4.735-2.683-7.023-6.43-7.023-3.75 0-5.327 2.92-5.327 2.92v-2.38z" fill="#fff"/></g></svg>